<svg data-v-423bf9ae="" xmlns="http://www.w3.org/2000/svg" viewBox="0 0 351 90" class="iconLeft"><!----><!----><!----><g data-v-423bf9ae="" id="9d4b1b1b-e866-4985-89e2-9fa33b98f447" fill="black" transform="matrix(5.484460426963632,0,0,5.484460426963632,125.2577722900863,-1.4533822345652112)"><path d="M0.50 13.78L2.44 13.78L2.44 8.93C2.63 8.46 2.80 8.20 3.07 8.20C3.33 8.20 3.47 8.44 3.47 8.92L3.47 13.78L5.05 13.78L5.05 8.93C5.24 8.46 5.43 8.20 5.70 8.20C5.98 8.20 6.09 8.44 6.09 8.92L6.09 13.78L8.02 13.78L8.02 8.76C8.02 7.34 7.45 6.45 6.48 6.45C5.70 6.45 5.21 6.97 4.96 7.63C4.79 6.86 4.35 6.45 3.74 6.45C2.94 6.45 2.52 6.93 2.25 7.53L2.20 7.53L2.04 6.64L0.50 6.64ZM12.57 5.80C13.38 5.80 13.97 5.26 13.97 4.42C13.97 3.58 13.38 3.00 12.57 3.00C11.76 3.00 11.17 3.58 11.17 4.42C11.17 5.26 11.76 5.80 12.57 5.80ZM9.25 13.78L16.07 13.78L16.07 12.11L13.69 12.11L13.69 6.64L9.25 6.64L9.25 8.25L11.63 8.25L11.63 12.11L9.25 12.11ZM18.42 13.78L20.48 13.78L20.48 10.02C21.07 8.74 21.97 8.26 22.82 8.26C23.34 8.26 23.62 8.34 24.05 8.47L24.47 6.75C24.07 6.57 23.74 6.45 23.13 6.45C22.02 6.45 21 7.03 20.31 8.20L20.27 8.20L20.10 6.64L18.42 6.64ZM30.63 13.94C31.53 13.94 32.28 13.75 32.90 13.55L32.54 12.07C32.13 12.22 31.68 12.33 31.15 12.33C30.14 12.33 29.69 11.90 29.69 10.81L29.69 8.25L32.63 8.25L32.63 6.64L29.69 6.64L29.69 3.70L27.73 4.54L27.73 6.64L25.89 6.64L25.89 8.25L27.64 8.25L27.64 10.82C27.64 12.68 28.42 13.94 30.63 13.94ZM34.61 13.78L36.67 13.78L36.67 9.00C37.16 8.48 37.52 8.20 38.08 8.20C38.84 8.20 39.10 8.65 39.10 9.63L39.10 13.78L41.16 13.78L41.16 9.37C41.16 7.56 40.46 6.45 38.91 6.45C37.86 6.45 37.10 6.99 36.55 7.55L36.67 6.16L36.67 3.65L34.61 3.65Z"></path></g><!----><g data-v-423bf9ae="" id="a8511c5f-ae76-4ad2-84b0-4d4e0b8d2891" transform="matrix(1.1111111111111112,0,0,1.1111111111111112,-1.1999982992808071,-6.666666666666671)" stroke="none" fill="black"><path d="M9.9 87H99V14.1H50.4v8.1h40.5v56.699H18V54.601H9.9z"></path><path d="M34.2 14.1h-8.1V6H9.9V30.3H1.8v16.2H18V22.2h16.2v16.2h-8.1v16.201h16.2V14.1z"></path></g><!----></svg>